{"accessors" : [{"bufferView" : 0, "byteOffset" : 0, "componentType" : 5123, "count" : 1260, "type" : "SCALAR", "max" : [1259], "min" : [0]}, {"bufferView" : 1, "byteOffset" : 0, "componentType" : 5126, "count" : 1260, "type" : "VEC3", "max" : [1.0280687808990479, 4.118220806121826, 0.08701467514038086], "min" : [-1.1838724613189697, 1.5977766513824463, -0.5], "name" : "POSITION"}, {"bufferView" : 1, "byteOffset" : 12, "componentType" : 5126, "count" : 1260, "type" : "VEC3", "max" : [1.0000033378601074, 0.9999943375587463, 1.0000044107437134], "min" : [-1.0000032186508179, -0.9999464154243469, -1.0000044107437134], "name" : "NORMAL"}, {"bufferView" : 1, "byteOffset" : 24, "componentType" : 5126, "count" : 1260, "type" : "VEC2", "max" : [0.5151656866073608, -0], "min" : [0.125, -1], "name" : "TEXCOORD_0"}], "asset" : {"generator" : "Aspose.3D 22.5.1", "version" : "2.0"}, "buffers" : [{"uri" : "data:application/octet-stream;base64,", "byteLength" : 42848}], "bufferViews" : [{"buffer" : 0, "byteOffset" : 0, "byteLength" : 2520, "target" : 34963}, {"buffer" : 0, "byteOffset" : 2524, "byteLength" : 40320, "byteStride" : 32, "target" : 34962}], "materials" : [{"name" : "aiStandardSurface1", "pbrMetallicRoughness" : {"baseColorFactor" : [0, 0, 0, 1], "metallicFactor" : 0, "roughnessFactor" : 0}, "emissiveFactor" : [0, 0, 0], "alphaMode" : "OPAQUE", "doubleSided" : false}], "meshes" : [{"primitives" : [{"attributes" : {"POSITION" : 1, "NORMAL" : 2, "TEXCOORD_0" : 3}, "indices" : 0, "material" : 0, "mode" : 4}], "name" : ""}], "nodes" : [{"matrix" : [1, 0, 0, 0, 0, 1, 0, 0, 0, 0, 1, 0, -0.03219667599014753, 0, 0.6643533110618591, 1], "mesh" : 0, "name" : "pCube5"}], "scene" : 0, "scenes" : [{"nodes" : [0]}]}